<?xml version="1.0" standalone="no"?>
<!DOCTYPE svg PUBLIC "-//W3C//DTD SVG 20010904//EN"
 "http://www.w3.org/TR/2001/REC-SVG-20010904/DTD/svg10.dtd">
<svg version="1.0" xmlns="http://www.w3.org/2000/svg"
 width="512.000000pt" height="512.000000pt" viewBox="0 0 512.000000 512.000000"
 preserveAspectRatio="xMidYMid meet">
<metadata>
Created by potrace 1.14, written by Peter Selinger 2001-2017
</metadata>
<g transform="translate(0.000000,512.000000) scale(0.100000,-0.100000)"
fill="#000000" stroke="none">
<path d="M2398 5105 c-2 -2 -38 -6 -81 -10 -79 -7 -102 -10 -167 -21 -19 -4
-44 -8 -55 -10 -78 -13 -124 -24 -285 -69 -118 -32 -422 -164 -525 -228 -117
-72 -278 -184 -321 -222 -6 -5 -33 -28 -60 -50 -27 -22 -91 -83 -144 -135
-233 -232 -416 -502 -543 -800 -40 -96 -101 -268 -112 -316 -2 -10 -10 -44
-18 -74 -8 -30 -18 -73 -23 -95 -4 -22 -8 -42 -9 -45 -1 -3 -5 -32 -9 -65 -5
-33 -10 -68 -12 -79 -18 -100 -24 -440 -10 -566 15 -134 24 -197 41 -270 3
-14 10 -49 16 -78 6 -29 16 -71 24 -93 8 -21 14 -43 15 -47 0 -13 42 -136 70
-207 172 -436 466 -820 845 -1104 349 -260 721 -414 1175 -485 128 -20 421
-27 580 -13 684 60 1337 412 1757 947 126 160 182 245 265 400 130 243 240
582 273 848 29 227 24 573 -10 742 -2 14 -7 41 -10 60 -3 19 -8 49 -12 65 -4
17 -7 32 -8 35 -1 3 -5 21 -9 40 -20 92 -85 285 -133 400 -128 300 -311 569
-553 810 -411 410 -948 663 -1536 726 -51 5 -412 13 -416 9z"/>
</g>
</svg>
